# xmcd
#
# Track frame offsets: 
#        150
#        4326
#        20665
#        36074
#        60923
#        68721
#        88261
#        107400
#        125670
#        147342
#        168260
#        174139
#        188128
#        213312
#        230331
#        242506
#        261565
#
# Disc length: 3816 seconds
#
# Revision: 0
# Processed by: cddbd v1.5.2PL0 Copyright (c) Steve Scherf et al.
# Submitted via: ExactAudioCopyFreeDBPlugin 1.0
#
DISCID=e30ee611
DTITLE=Tweet - Charlene (Deluxe Edition)
DYEAR=2016
DGENRE=Neo Soul
TTITLE0=Intro: Soulfully Yours, Charlene
TTITLE1=Magic
TTITLE2=Won't Hurt Me
TTITLE3=Priceless
TTITLE4=Interlude: All Is See Is You
TTITLE5=Somebody Else Will (feat. Missy Elliott)
TTITLE6=Addicted
TTITLE7=Neva Shouda Left Ya
TTITLE8=The Hardest Thing
TTITLE9=Got Whatcha Want
TTITLE10=Interlude: Will You Be Here
TTITLE11=I Didn't Know
TTITLE12=Dadada.....Struggle
TTITLE13=I Was Created For This
TTITLE14=Outro: I Surrender
TTITLE15=Somewhere Out There (Bonus Track)
TTITLE16=Fool No Mo (Bonus Track)
EXTD=
EXTT0=
EXTT1=
EXTT2=
EXTT3=
EXTT4=
EXTT5=
EXTT6=
EXTT7=
EXTT8=
EXTT9=
EXTT10=
EXTT11=
EXTT12=
EXTT13=
EXTT14=
EXTT15=
EXTT16=
PLAYORDER=
